<svg xmlns="http://www.w3.org/2000/svg" xmlns:xlink="http://www.w3.org/1999/xlink" width="500" zoomAndPan="magnify" viewBox="0 0 375 374.999991" height="500" preserveAspectRatio="xMidYMid meet" version="1.0"><defs><clipPath id="3e781e1379"><path d="M 14 71 L 359 71 L 359 304.667969 L 14 304.667969 Z M 14 71 " clip-rule="nonzero"/></clipPath></defs><path fill="#ffffff" d="M 99.660156 122.246094 C 99.832031 121.519531 100.019531 120.800781 100.214844 120.089844 C 101.125 116.816406 102.316406 113.734375 103.695312 110.816406 C 109.570312 98.378906 119.191406 89.046875 130.835938 82.671875 C 141.996094 76.558594 155.050781 73.199219 168.445312 72.378906 C 188.183594 71.171875 208.683594 75.53125 225.046875 84.820312 C 236.980469 91.597656 246.714844 101.003906 252.464844 112.734375 C 253.0625 113.957031 253.664062 115.15625 254.277344 116.320312 C 281.261719 106.648438 304.054688 109.117188 321.371094 118.488281 C 348.027344 132.917969 361.8125 163.851562 357.941406 193.171875 C 353.742188 225.019531 328.851562 255.160156 276.855469 259.632812 L 276.855469 300.804688 C 276.855469 301.828125 276.3125 302.765625 275.433594 303.277344 C 274.554688 303.789062 273.46875 303.800781 272.582031 303.296875 C 215.871094 271.1875 156.945312 271.035156 95.765625 303.335938 C 94.878906 303.804688 93.8125 303.777344 92.953125 303.257812 C 92.09375 302.738281 91.570312 301.808594 91.570312 300.804688 L 91.570312 267.328125 C 37.972656 265.140625 13.1875 228.25 14.894531 192.335938 C 16.617188 156.042969 45.460938 120.382812 99.660156 122.246094 Z M 99.660156 122.246094 " fill-opacity="1" fill-rule="evenodd"/><g clip-path="url(#3e781e1379)"><path fill="#000000" d="M 99.363281 121.863281 C 99.515625 121.234375 99.679688 120.613281 99.847656 119.996094 C 100.765625 116.703125 101.964844 113.597656 103.355469 110.65625 C 109.265625 98.148438 118.9375 88.757812 130.652344 82.347656 C 141.863281 76.207031 154.972656 72.828125 168.425781 72.003906 C 188.234375 70.796875 208.8125 75.167969 225.234375 84.496094 C 237.242188 91.3125 247.023438 100.773438 252.8125 112.574219 C 253.355469 113.691406 253.902344 114.785156 254.464844 115.855469 C 281.429688 106.265625 304.222656 108.78125 321.554688 118.160156 C 348.347656 132.664062 362.207031 163.753906 358.320312 193.234375 C 354.109375 225.152344 329.234375 255.394531 277.238281 259.988281 L 277.238281 300.816406 C 277.238281 301.96875 276.625 303.035156 275.628906 303.617188 C 274.628906 304.191406 273.402344 304.203125 272.394531 303.636719 C 215.800781 271.589844 156.996094 271.445312 95.945312 303.679688 C 94.941406 304.210938 93.730469 304.175781 92.757812 303.589844 C 91.785156 303.003906 91.191406 301.949219 91.191406 300.816406 L 91.191406 267.699219 C 37.574219 265.34375 12.804688 228.335938 14.511719 192.328125 C 16.242188 155.921875 45.101562 120.136719 99.363281 121.863281 Z M 157.09375 217.707031 C 137.359375 221.003906 117.550781 227.8125 97.675781 238.082031 L 97.675781 295.496094 C 157.441406 265.484375 215.117188 265.621094 270.753906 295.332031 L 270.753906 242.316406 C 225.71875 264.714844 182.8125 249.878906 157.570312 218.1875 C 157.398438 218.046875 157.238281 217.886719 157.09375 217.707031 Z M 297.949219 146.976562 C 288.183594 149.515625 279.714844 148.519531 272.210938 144.722656 C 268.761719 142.972656 265.535156 140.605469 262.515625 137.6875 C 256.734375 132.09375 251.789062 124.425781 247.222656 115.332031 C 241.929688 104.675781 232.960938 96.222656 222.070312 90.085938 C 206.65625 81.398438 187.382812 77.367188 168.820312 78.492188 C 156.328125 79.25 144.167969 82.363281 133.714844 87.984375 C 123.089844 93.707031 114.246094 102.039062 108.710938 113.246094 C 107.40625 115.890625 106.296875 118.691406 105.34375 121.644531 C 104.441406 124.453125 103.660156 127.386719 103.105469 130.492188 C 102.21875 135.246094 102.140625 142.21875 102.660156 149.027344 C 103.210938 156.292969 104.414062 163.351562 106.152344 167.367188 C 106.410156 167.921875 106.175781 168.578125 105.625 168.84375 C 105.070312 169.113281 104.40625 168.882812 104.136719 168.332031 C 101.984375 164.285156 100.085938 157.011719 98.921875 149.460938 C 97.8125 142.269531 97.410156 134.851562 97.976562 129.726562 C 98.035156 129.253906 98.09375 128.785156 98.160156 128.316406 C 49.007812 127.203125 22.566406 159.453125 20.992188 192.632812 C 19.429688 225.511719 42.355469 258.910156 91.191406 261.207031 L 91.191406 253.550781 C 87.453125 254.355469 83.960938 254.660156 80.722656 254.335938 C 78.015625 254.066406 75.472656 253.417969 73.144531 252.359375 C 70.226562 251.03125 67.617188 249.179688 65.332031 246.75 C 63.332031 244.628906 61.601562 242.148438 60.078125 239.230469 C 59.691406 238.636719 59.855469 237.832031 60.449219 237.433594 C 61.042969 237.035156 61.847656 237.191406 62.253906 237.769531 C 63.769531 239.554688 65.363281 241.042969 67.015625 242.371094 C 69.578125 244.4375 72.320312 245.804688 75.28125 246.714844 C 77.175781 247.292969 79.152344 247.617188 81.253906 247.746094 C 84.140625 247.921875 87.246094 247.722656 90.597656 246.957031 L 91.191406 246.816406 L 91.191406 239.496094 L 89.277344 239.074219 L 89.265625 239.074219 C 82.632812 237.335938 76.902344 234.691406 72.152344 231.027344 C 68.757812 228.414062 65.835938 225.316406 63.4375 221.738281 C 60.660156 217.597656 58.554688 212.851562 57.09375 207.519531 C 55.839844 202.941406 55.089844 197.960938 54.769531 192.542969 C 54.6875 191.832031 55.195312 191.1875 55.910156 191.09375 C 56.621094 191.007812 57.273438 191.507812 57.371094 192.214844 C 58.144531 196.230469 59.171875 199.929688 60.386719 203.394531 C 62.386719 209.113281 65.050781 213.996094 68.335938 218.175781 C 70.605469 221.066406 73.195312 223.578125 76.132812 225.746094 C 80.316406 228.828125 85.199219 231.210938 90.933594 232.742188 L 92.96875 233.226562 C 113.0625 222.644531 133.082031 215.515625 153.03125 211.835938 C 152.292969 210.644531 151.550781 209.351562 150.820312 207.957031 C 149.214844 204.878906 147.6875 201.3125 146.464844 197.296875 C 145.699219 194.777344 145.019531 192.089844 144.597656 189.21875 C 144.335938 187.441406 144.105469 185.613281 144.109375 183.707031 C 144.109375 180.765625 144.53125 177.8125 145.113281 174.640625 C 145.148438 174.027344 145.660156 173.550781 146.277344 173.570312 C 146.890625 173.582031 147.378906 174.085938 147.378906 174.699219 C 147.773438 177.726562 148.484375 180.445312 149.089844 183.164062 C 149.46875 184.871094 149.796875 186.523438 150.191406 188.125 C 150.820312 190.6875 151.523438 193.105469 152.328125 195.363281 C 153.605469 198.945312 155.105469 202.117188 156.601562 204.890625 C 158.394531 208.21875 160.191406 210.960938 161.710938 213.054688 C 161.855469 213.175781 161.992188 213.324219 162.113281 213.480469 C 185.746094 243.703125 226.519531 257.742188 269.183594 235.84375 C 269.265625 235.792969 269.347656 235.746094 269.4375 235.707031 C 269.488281 235.679688 269.539062 235.65625 269.585938 235.632812 C 270.382812 235.222656 271.1875 234.792969 271.984375 234.351562 C 274.863281 232.683594 278.8125 229.9375 282.929688 225.667969 C 285.289062 223.214844 287.707031 220.28125 290.035156 216.746094 C 292.429688 213.117188 294.714844 208.890625 296.792969 203.925781 C 298.53125 199.75 300.210938 195.160156 301.515625 189.894531 C 301.636719 189.242188 302.261719 188.800781 302.921875 188.910156 C 303.582031 189.023438 304.023438 189.644531 303.925781 190.304688 C 303.417969 195.925781 302.558594 200.960938 301.285156 205.488281 C 299.703125 211.089844 297.5625 215.859375 295.230469 219.941406 C 292.886719 224.039062 290.289062 227.414062 287.703125 230.1875 C 283.984375 234.1875 280.28125 236.941406 277.238281 238.832031 L 277.238281 244.136719 C 280.886719 243.378906 284.023438 242.214844 286.792969 240.90625 C 288.941406 239.890625 290.875 238.820312 292.566406 237.488281 C 295.640625 235.074219 298.035156 232.195312 299.660156 228.5 C 299.882812 227.828125 300.609375 227.449219 301.292969 227.664062 C 301.972656 227.875 302.363281 228.59375 302.164062 229.28125 C 301.636719 232.164062 300.714844 234.777344 299.375 237.210938 C 297.984375 239.734375 296.132812 241.960938 293.8125 243.921875 C 292.121094 245.355469 290.152344 246.589844 287.9375 247.640625 C 285.121094 248.972656 281.875 249.90625 278.257812 250.628906 L 277.238281 250.796875 L 277.238281 253.476562 C 324.839844 249.058594 348.019531 221.738281 351.890625 192.382812 C 355.4375 165.5 342.90625 137.089844 318.46875 123.863281 C 302.722656 115.339844 282.085938 113.191406 257.699219 121.59375 C 260.488281 126.183594 263.480469 130.1875 266.6875 133.535156 C 269.222656 136.179688 271.863281 138.429688 274.742188 140.191406 C 281.132812 144.113281 288.511719 145.734375 297.40625 144.351562 C 298.128906 144.214844 298.828125 144.675781 298.980469 145.394531 C 299.128906 146.117188 298.664062 146.824219 297.949219 146.976562 Z M 297.949219 146.976562 " fill-opacity="1" fill-rule="evenodd"/></g></svg>